<svg t="1650262568650" class="icon" viewBox="0 0 1025 1024" version="1.1" xmlns="http://www.w3.org/2000/svg" p-id="2222" width="200" height="200"><path d="M358.55104 722.432l-71.68-80.896-143.36 162.304h645.12l-250.88-284.16z m0 0" fill="#bfbfbf" p-id="2223"></path><path d="M215.19104 479.232a76.8 76.8 0 0 0 71.68 81.408A76.8 76.8 0 0 0 358.55104 479.232a76.8 76.8 0 0 0-71.68-80.896 76.8 76.8 0 0 0-71.68 80.896z m0 0" fill="#bfbfbf" p-id="2224"></path><path d="M964.24704 230.4L186.51904 89.088A73.728 73.728 0 0 0 102.55104 156.16l-10.752 79.872H71.83104A76.8 76.8 0 0 0 0.15104 317.44v567.296a76.8 76.8 0 0 0 71.68 80.896h788.48A69.632 69.632 0 0 0 921.75104 921.6a79.36 79.36 0 0 0 17.92-40.448L1024.15104 323.584a79.36 79.36 0 0 0-59.904-93.184zM132.24704 191.488a66.56 66.56 0 0 1 76.288-58.88l568.832 102.4H125.59104z m768 658.432a69.12 69.12 0 0 1-66.56 71.68H102.55104a69.12 69.12 0 0 1-66.56-72.192V347.136A69.632 69.632 0 0 1 102.55104 274.944h732.16a69.12 69.12 0 0 1 66.56 72.192z m33.28-141.312V317.44a87.04 87.04 0 0 0-20.48-56.832l19.456 3.584a71.68 71.68 0 0 1 54.784 82.944z m0 0" fill="#bfbfbf" p-id="2225"></path></svg>
