<svg t="1650263973596" class="icon" viewBox="0 0 1024 1024" version="1.1" xmlns="http://www.w3.org/2000/svg" p-id="3194" width="200" height="200"><path d="M53.423316 953.37931C62.919503 953.37931 70.62069 961.079755 70.62069 970.576614L70.62069 35.310345C70.62069 15.808989 54.811719 0 35.310345 0 15.808971 0 0 15.808989 0 35.310345L0 970.576614C0 1000.084092 23.918345 1024 53.423316 1024L988.689655 1024C1008.191029 1024 1024 1008.191011 1024 988.689655 1024 969.188299 1008.191029 953.37931 988.689655 953.37931L53.423316 953.37931ZM863.548734 862.633031C863.548734 882.134387 879.357705 897.943375 898.859079 897.943375 918.360452 897.943375 934.169423 882.134387 934.169423 862.633031L934.169423 107.272739C934.169423 87.771383 918.360452 71.962394 898.859079 71.962394 879.357705 71.962394 863.548734 87.771383 863.548734 107.272739L863.548734 862.633031ZM332.82613 862.885235C332.82613 882.386609 348.635101 898.19558 368.136474 898.19558 387.637848 898.19558 403.446819 882.386609 403.446819 862.885235L403.446819 322.907719C403.446819 303.406345 387.637848 287.597374 368.136474 287.597374 348.635101 287.597374 332.82613 303.406345 332.82613 322.907719L332.82613 862.885235ZM232.536099 322.907719C232.536099 303.406345 216.727128 287.597374 197.225754 287.597374 177.724381 287.597374 161.91541 303.406345 161.91541 322.907719L161.91541 862.885235C161.91541 882.386609 177.724381 898.19558 197.225754 898.19558 216.727128 898.19558 232.536099 882.386609 232.536099 862.885235L232.536099 322.907719ZM674.647393 862.711172C674.647393 882.212546 690.456364 898.021517 709.957738 898.021517 729.459112 898.021517 745.268083 882.212546 745.268083 862.711172L745.268083 502.987776C745.268083 483.486402 729.459112 467.677431 709.957738 467.677431 690.456364 467.677431 674.647393 483.486402 674.647393 502.987776L674.647393 862.711172ZM574.357539 502.987776C574.357539 483.486402 558.548568 467.677431 539.047194 467.677431 519.545821 467.677431 503.73685 483.486402 503.73685 502.987776L503.73685 862.711172C503.73685 882.212546 519.545821 898.021517 539.047194 898.021517 558.548568 898.021517 574.357539 882.212546 574.357539 862.711172L574.357539 502.987776Z" p-id="3195" fill="#cdcdcd"></path></svg>
