<svg t="1650259245565" class="icon" viewBox="0 0 1024 1024" version="1.1" xmlns="http://www.w3.org/2000/svg" p-id="4242" width="200" height="200"><path d="M933.3 227.3c-12.8-9.9-29.3-15.3-46.4-15.3H818v-30.7c0-65.6-56.6-119-126.1-119h-359c-69.5 0-126.1 53.4-126.1 119V212h-68.9c-17.2 0-33.7 5.4-46.4 15.3-15.3 11.8-24.1 29.1-24.1 47.4 0 56.4 17.1 109.7 48.3 150.2 15.9 20.6 34.5 36.9 55.5 48.4 11.5 6.3 23.4 11 35.6 14.2v24.3c0 39.2 8.2 77.2 24.4 112.9 15.5 34.4 37.7 65.2 66 91.6 49 45.8 111.6 74.1 179.2 81.5v87.4H320.1c-19.9 0-36 16.1-36 36s16.1 36 36 36h383.3c19.9 0 36-16.1 36-36s-16.1-36-36-36h-155v-87.4c67.6-7.4 130.2-35.7 179.2-81.5 28.2-26.4 50.4-57.2 66-91.6C809.8 589 818 551.1 818 512v-24.5c12.2-3.1 24.1-7.8 35.6-14.2 21-11.5 39.7-27.8 55.5-48.4 31.1-40.5 48.3-93.8 48.3-150.2 0-18.3-8.8-35.5-24.1-47.4zM172.7 381c-19.9-25.8-31.5-60-33.1-97h67.2v126.7c-12.4-6.6-24-16.6-34.1-29.7z m339.7 346.8c-128.8 0-233.6-96.9-233.6-216V181.3c0-25.9 24.3-47 54.1-47h358.9c29.8 0 54.1 21.1 54.1 47v330.5c0 119.1-104.7 216-233.5 216zM852 381c-10.1 13.1-21.7 23.1-34.1 29.7V284h67.2c-1.6 37-13.2 71.1-33.1 97z" fill="#dbdbdb" p-id="4243"></path><path d="M512.437 514.688l89.41 39.376c4.912 2.155 10.218-1.763 9.628-7.053l-10.611-101.085 58.755-66.802c3.34-3.918 1.572-9.795-3.34-11.166l-85.48-22.92-52.86-85.806c-2.751-4.31-9.04-4.31-11.79 0l-52.86 85.61-85.48 22.92c-4.913 1.371-6.878 7.444-3.34 11.166l58.754 66.802-10.611 101.085c-0.59 5.29 4.913 9.208 9.629 7.053l89.41-39.376 0.786 0.196z" fill="#dbdbdb" p-id="4244"></path></svg>
