<svg t="1650202543450" class="icon" viewBox="0 0 1024 1024" version="1.1" xmlns="http://www.w3.org/2000/svg" p-id="3436" width="200" height="200"><path d="M505.335207 983.799416c-256.850879-0.191358-466.934618-210.558553-466.75861-467.388966C38.752606 259.777535 249.723551 49.28345 506.22446 49.820686c256.68408 0.537236 466.599997 211.449853 466.005456 468.217844C971.637422 774.08816 761.225201 983.989751 505.335207 983.799416zM956.329784 517.051039C958.421422 271.229354 756.535389 68.543096 507.087107 66.026786c-247.075235-2.492774-450.578092 199.562105-452.40367 449.186396-1.801019 246.209518 199.465914 450.476785 446.097034 452.747501C750.874459 970.263122 954.184935 769.022795 956.329784 517.051039z" p-id="3437" fill="#13227a"></path><path d="M504.594333 795.962354c-154.24192-1.221828-279.947923-128.482233-278.146904-281.58726 1.796926-152.798035 128.377856-277.8174 280.166911-276.711206 153.518442 1.118474 279.255145 127.826294 278.041504 280.1884C783.430946 671.574369 656.955416 797.169855 504.594333 795.962354zM242.337327 516.296863c-0.042979 144.650471 118.077256 263.488043 262.331707 263.924995 144.841829 0.438998 264.348644-118.750591 264.268826-263.566838-0.079818-144.894018-120.235408-264.330224-264.657682-263.073604C359.859951 254.837013 242.379283 372.663558 242.337327 516.296863z" p-id="3438" fill="#13227a"></path><path d="M775.933181 741.316779c5.91164-10.465352 13.361309-20.157085 0.39295-31.333636-2.783393-2.39863 2.004657-13.583366 3.753487-23.183002-7.604188 5.254677-12.213159 8.44023-19.894096 13.747095 5.000897 5.757121 11.480472 13.219069 18.627243 21.446451-2.255367 3.676739-4.718465 7.694239-8.772804 14.303774-5.064342-7.852852-9.56996-14.83794-14.314007-22.193465 0.328481-1.747807 1.426489-7.597025 2.425236-12.912078-6.488785-3.123131-11.147898-5.365194-13.794168-6.639211 7.340175-4.334725 17.830087-6.91755 20.877493-13.142322 5.080715-10.377348-1.512447-19.243273-14.888082-23.01518 18.575054-4.152577 19.546172-3.109828 22.674419 20.897959 5.301749 0 10.518564 0 17.359366 0-2.358721-5.41329-4.319375-9.911744-6.792707-15.585977 2.611477-1.38965 6.181793-3.288906 10.201339-5.428639 1.64957 11.040451 3.069919 20.544919 4.722558 31.607882 4.216022-1.566682 6.683213-3.01159 9.287527-3.325745 3.664459-0.442068 9.206686-1.51347 10.735505 0.336668 2.284019 2.76395 2.580778 7.902994 2.258437 11.913331-0.471744 5.885034-3.27151 11.689227-3.146667 17.486256 0.113587 5.311982 2.789533 10.56973 3.876284 14.279215 9.481955-3.317559 16.101723-5.634324 22.722514-7.951089 0.982374 1.51961 1.963725 3.039219 2.946099 4.558829-6.006807 8.017604-12.013615 16.035208-17.959024 23.971971 8.718569 10.589173 17.157775 20.840654 25.598005 31.091112-0.946558 1.447978-1.893116 2.895957-2.839675 4.344958-8.745175-0.38681-17.49035-0.773619-26.235524-1.159406-0.070608-1.124614-0.141216-2.25025-0.211824-3.374864 4.206812-1.216711 8.413624-2.433422 14.677281-4.244674-6.389524-5.779633-11.310603-10.231015-16.808828-15.204283-11.102872 7.269567-5.798053 30.358425-28.41619 30.255071 4.313236-11.405771 8.065699-21.324678 11.476379-30.343075-20.506033-19.25146 9.026584-37.486776-0.564865-58.052161-5.479805 11.320836-9.785877 21.582551-15.370059 31.093159-2.288113 3.89675-7.340175 6.17156-11.134595 9.185196C778.245853 743.603869 777.089517 742.460836 775.933181 741.316779z" p-id="3439" fill="#13227a"></path><path d="M616.481609 786.30132c4.856611 11.812023 8.824993 21.464871 13.178137 32.05302 7.498788-6.291287 14.666024-12.302187 21.832238-18.314111 1.474584 1.50119 2.948145 3.001357 4.422729 4.502547-4.03592 5.665023-7.737218 11.609409-12.172227 16.942881-11.973706 14.398942-12.059664 16.923438 5.296633 21.484314 23.400966 6.15007 47.333028 10.277064 70.546729 15.168468-27.637454 20.464077-53.17406 0.456395-79.233576-10.166547-5.27105 41.665958-14.579043 55.695486-40.226167 57.874105 13.288654-13.936407 32.838919-23.011086 24.553209-46.200228-3.526313 2.632967-6.305613 5.508457-9.69378 6.967692-2.408863 1.037632-6.40692 1.201361-8.264221-0.176009-1.506307-1.11745-2.210341-6.346545-1.00591-7.636934 17.652032-18.897396 12.508895-39.639812 5.687536-60.697407-0.565888-1.747807-0.040932-3.930519 0.301875-5.853311C611.850126 791.431154 612.833523 790.761911 616.481609 786.30132z" p-id="3440" fill="#13227a"></path><path d="M218.427778 796.316417c-0.245593-4.988618 0.2415-9.883091-0.914836-14.351869-1.11745-4.321422-3.252067-11.112082-6.111185-11.776208-12.1886-2.831488-15.379269-7.325849-9.101285-18.497283 8.266267-14.709003 23.011086-20.183691 40.400129-27.055193-3.133364 7.104815-5.007037 11.352559-8.243755 18.690688 7.089465-2.979868 11.719926-4.927219 17.464767-7.342222 1.199315 3.213181 2.566452 6.874571 4.692882 12.570293 9.829879-6.884804 18.402115-12.888542 26.973328-18.892279-0.398066-1.162476-0.796132-2.325975-1.194198-3.488451-4.950755 0-9.901511 0-18.021445 0 14.778588-7.366781 26.976398-5.077645 31.93841 4.701069 1.149173 2.2656-0.454348 7.918343-2.64013 9.581216C269.774213 758.63726 245.5106 776.334317 218.427778 796.316417z" p-id="3441" fill="#13227a"></path><path d="M176.939875 755.970524c1.428535-5.043876 2.856048-10.088776 4.397147-15.529695-2.292206-1.664919-5.562692-4.03899-9.301853-6.754844-3.233648 2.605338-6.456039 7.309476-10.06217 7.623631-5.659907 0.494257-13.694907-0.150426-16.766872-3.719718-2.830465-3.287883-2.723018-12.897751 0.144286-16.460904 5.066389-6.296403 12.68695-11.280928 20.205181-14.669094 9.146311-4.121877 17.183358-7.642051 16.434298-19.693528-0.099261-1.605567 2.740414-3.394307 4.40738-5.316076 10.637268 17.195637 8.281617 22.639626-8.916067 28.152177-10.284227 3.297093-19.775392 9.066493-28.969798 16.081257 15.002692 6.337335 32.064276-11.461029 47.567365 6.259564 7.02909-6.444782 15.902178-14.580067 25.482371-23.36515-5.062296-3.486404-8.591679-5.91778-12.065803-8.31027 0.787946-1.544169 1.408069-3.114944 1.590218-3.065825 19.169595 5.197372 31.561833-4.953825 43.236733-18.081821 2.422166-2.723018 8.054443-2.593058 12.20702-3.777023-1.50426 5.152347-1.617847 11.597129-4.88424 15.111163-3.605108 3.87833-10.102079 5.068436-17.73185 11.763928 2.357697 0.861624 4.974291 1.346671 6.982018 2.719948 1.301645 0.890276 1.716084 3.078105 3.612271 6.828522-22.390963-6.592139-33.472346 7.843642-45.523823 19.850094-9.019421 8.985652-17.46272 18.550495-26.16287 27.857465C180.861184 758.307755 178.900529 757.13914 176.939875 755.970524z" p-id="3442" fill="#13227a"></path><path d="M577.951061 185.394431c5.737678-20.894889 11.209296-40.820708 16.626679-60.550051 15.283078-0.660032 22.985504 4.970198 23.87271 20.134573 0.599657 10.246365 3.713578 20.346397 8.28264 31.106462 3.871167-12.860912 7.742335-25.721825 13.269211-44.083008 4.607948 6.55223 10.075473 10.914584 9.41851 13.95278-3.959172 18.296715-9.321296 36.290531-14.126742 54.060243-16.093537 1.672082-22.185278-5.89629-23.567765-19.963681-1.095961-11.162224-3.723811-22.172999-8.629541-33.468253-3.071965 11.004635-6.061043 22.033829-9.239432 33.007765C591.102592 189.106985 591.008448 189.079356 577.951061 185.394431z" p-id="3443" fill="#13227a"></path><path d="M477.389738 181.390233c-34.721803 9.718339-31.91692-28.009937-52.222385-37.181831 1.939165 11.605316 3.839445 23.011086 5.753027 34.414811 1.64343 9.79304 1.650593 9.790994-11.488659 13.166881-3.737114-20.788465-7.453762-41.458227-11.202133-62.310138 12.768815-6.976902 22.246677-6.529717 29.801746 7.070023 5.122671 9.221012 12.468986 17.20587 21.530362 24.407899-1.816369-10.559497-4.376681-21.070898-5.067412-31.704073-0.260943-4.01136 3.804652-8.303106 5.897314-12.466939 1.923816 0.567935 3.847631 1.13587 5.771447 1.703805C469.841831 139.098012 473.519594 159.705352 477.389738 181.390233z" p-id="3444" fill="#13227a"></path><path d="M215.769228 321.272098c-12.882402-7.562233-24.677029-14.485923-37.299511-21.895683 2.030239-3.891633 3.738138-7.16519 6.185886-11.858072 18.59552 10.715039 36.464493 21.011546 54.871725 31.618115-3.173273 13.305027-9.061376 20.24509-23.780613 17.446347-11.618619-2.209318-23.654746-2.217505-36.842093-0.802272 12.555967 7.644097 25.111934 15.288195 41.714054 25.39539-6.836709 2.911306-12.421914 7.385201-15.005762 6.049786-17.0974-8.836249-33.550117-18.918885-50.223868-28.601408C168.286798 304.653605 194.762799 329.356216 215.769228 321.272098z" p-id="3445" fill="#13227a"></path><path d="M255.150144 238.658542c-7.870248 3.566222-12.33391 6.699586-17.203824 7.576559-12.371772 2.227738-19.705807 13.57518-12.499685 23.671119 5.321192 7.455809 14.243399 15.024182 22.700001 16.660448 6.138814 1.188058 14.139022-7.245008 21.309328-11.388375-0.573051-2.422166-1.146103-4.844332-1.719154-7.266497-4.436032 0-8.875135 0.077771-13.30912-0.027629-2.931772-0.069585-5.856381-0.403183-8.78406-0.6191 0.416486-2.557242 0.01842-5.734608 1.403976-7.550976 3.839445-5.030573 8.422833-9.494235 12.597923-14.057157 2.432399 1.403976 3.823072 1.997494 4.972245 2.90005 22.167882 17.411555 22.220071 17.646915 8.899694 34.991955-14.476713 18.851347-31.017434 22.576181-47.40159 10.67513-17.706267-12.861936-21.620413-30.397311-10.32209-46.24423C226.747257 232.616942 237.042741 229.027184 255.150144 238.658542z" p-id="3446" fill="#13227a"></path><path d="M790.537807 289.567002c-2.971681 2.177596-6.109138 4.425799-9.18929 6.749728-3.099594 2.337231-6.141884 4.749164-9.949606 7.701402-3.181459-3.77907-5.891174-6.997368-9.315156-11.062963 16.896832-13.610996 32.997532-26.581402 50.294476-40.513716 6.528694 7.990998 13.834076 14.823614 18.359137 23.164582 3.348258 6.172583 6.011924 15.576767 3.578502 21.203928-2.320858 5.365194-11.637038 7.704472-18.782785 9.218966-6.687306 8.827039-13.373589 17.653055-20.022009 26.428929-9.045003-6.201236-11.639085-12.270465-2.642177-19.281135C803.891953 304.58709 801.626353 297.062719 790.537807 289.567002zM798.665929 282.08254c6.731308 4.601808 11.508102 8.420787 16.86204 11.07729 1.125637 0.558725 6.573719-3.816932 6.28003-4.790096-1.804089-5.995551-4.683672-11.667737-7.625678-18.409279C808.520367 274.384208 805.067732 277.081643 798.665929 282.08254z" p-id="3447" fill="#13227a"></path><path d="M401.052119 875.686093c-5.403057-16.455787-1.346671-24.385387 16.271592-29.627784-5.000897-2.028193-9.026584-3.660366-13.051247-5.29254 0.079818-0.820692 0.159636-1.641383 0.239454-2.461051 12.551874-0.623193 25.103748-1.246387 37.654598-1.86958 0.071631-1.677199 0.143263-3.354398 0.214894-5.031597-2.727111-0.462534-5.449106-1.286296-8.181333-1.323135-9.472745-0.127913-19.191084 1.158383-28.248368-0.76441-2.196015-0.466628-2.219551-11.169387-3.391237-18.043958 9.163707 5.282307 14.579043 10.191106 20.602224 11.109012 2.926656 0.445138 6.990205-6.576789 12.539594-12.271488-13.504572-3.048429-22.75833-5.136997-32.013111-7.225565 0.415462-1.746784 0.830925-3.494591 1.24741-5.241374 23.161512 3.63376 46.323025 7.268544 69.484537 10.902304-0.289596 2.542916-0.580215 5.085832-0.86981 7.628748-11.432377-0.592494-22.86373-1.184989-35.223223-1.825578-5.912663 14.70798 15.2094 7.704472 18.986423 19.916609-9.758248 4.848425-19.866467 9.869788-30.641881 15.223726 1.110287 11.126408-10.253528 23.37436-26.128077 25.840528L401.052119 875.686093z" p-id="3448" fill="#13227a"></path><path d="M818.745243 327.597153c-0.804319 8.908904-1.846044 13.987572-1.549286 18.986423 0.292666 4.922103 1.204431 10.131755 3.363607 14.458293 0.859577 1.722224 5.796006 1.410116 8.876158 2.0241 0.681522-4.608971 1.488911-9.205663 1.967818-13.836123 0.144286-1.393743-0.670266-2.87242-0.962931-4.328585-2.1295-10.620895-3.741207-21.624507 9.17701-26.380834 12.368702-4.553713 21.146623 2.214435 27.361161 12.199856 6.659677 10.701736 7.507998 21.131273-8.425903 29.747511 0-4.716418 0.475837-9.495258-0.1361-14.130835-0.593518-4.498454-1.737574-9.153474-3.848655-13.090133-0.689708-1.286296-7.153934-1.464351-7.581676-0.553609-1.726318 3.674693-2.632967 7.945973-2.841721 12.048407-0.144286 2.828418 1.540076 5.704932 2.086521 8.620331 1.731434 9.247618 1.956561 18.6078-8.107655 23.119557-10.45205 4.686742-19.094894 0.666172-26.057469-8.097422C799.429315 352.478843 799.900036 341.03521 818.745243 327.597153z" p-id="3449" fill="#13227a"></path><path d="M409.930323 196.60475c-4.695952-0.212848-10.260691 1.131777-13.932314-0.916882-13.217023-7.374968-25.526373-2.00261-29.483498 12.921287-1.035586 3.90289-5.691629 6.845918-11.342326 13.234419-1.990331-24.629957-3.972475-44.281529-4.807493-63.981197-0.151449-3.572362 3.63376-9.015328 6.993275-10.55131 3.337002-1.52575 9.985422-0.794086 12.492522 1.676176 14.052041 13.845333 27.290553 28.517497 40.806381 42.906206C410.414347 193.4632 410.171824 195.033975 409.930323 196.60475zM364.817869 186.986695c6.461155-3.15997 10.44898-5.110391 15.626909-7.642051-5.849218-6.290263-10.305717-11.084453-17.336854-18.645662C363.797633 171.307597 364.207979 177.617303 364.817869 186.986695z" p-id="3450" fill="#13227a"></path><path d="M528.379039 116.340705c-0.986467 12.970406-2.066055 25.209148-2.799766 37.46938-0.561795 9.391904 1.935072 16.922415 13.121855 17.703197 10.590196 0.738827 13.784958-6.317892 14.640442-14.892175 0.933255-9.357112 1.509377-18.789948 1.514493-28.190039 0.00614-10.586103 4.665253-12.894681 15.648398-8.592702-1.151219 13.846356-1.469468 28.148084-3.743254 42.132586-2.375094 14.601556-12.988826 20.671809-30.133298 19.285229-15.461133-1.25048-24.994254-9.656941-25.322735-23.800056-0.252757-10.863419 1.500167-21.763676 1.450025-32.643468C512.708128 114.385167 517.951549 113.408933 528.379039 116.340705z" p-id="3451" fill="#13227a"></path><path d="M118.975718 463.615013c19.534915 25.650193 40.318264 22.936385 60.70764 1.566682 8.245801 22.741957-12.789281 21.451568-19.974937 30.474059 5.063319 10.638291 25.940812 10.073426 19.636223 30.643927-10.899234-7.670703-21.137413-14.875802-32.142048-22.620184-9.840112 6.148024-19.733437 12.33084-29.7997 18.62008-8.892531-20.104897 11.537777-20.053732 18.139126-28.853142C129.575124 484.331847 111.36846 483.844753 118.975718 463.615013z" p-id="3452" fill="#13227a"></path><path d="M186.622398 435.298084c-15.72617-12.644995-31.66928-25.038256-46.954405-38.195927-2.39863-2.064009-3.27458-8.074909-2.190899-11.391445 1.075495-3.290953 5.436826-7.695263 8.487302-7.79964 20.249183-0.690732 40.534182-0.358157 65.433268-0.358157-5.780657 6.266727-8.321526 11.413957-12.21009 12.811794-14.665001 5.27105-18.928095 17.660218-10.406001 30.447453 2.188852 3.284813 1.134847 8.730848 1.569752 13.184277C189.108009 434.431344 187.865715 434.864202 186.622398 435.298084zM151.028739 391.190517c8.634658 6.470365 14.153348 10.606569 21.047362 15.773242 1.798972-6.427386 2.926656-10.456143 4.414543-15.773242C168.491459 391.190517 161.865551 391.190517 151.028739 391.190517z" p-id="3453" fill="#13227a"></path><path d="M756.030899 285.684578c-12.193717-11.408841-22.225187-20.794605-33.458019-31.304983 14.813381-15.947204 28.845978-31.055297 44.068681-47.443545 10.425444 9.695826 20.390399 18.962887 30.287817 28.167526-5.762237 8.724709-5.762237 8.724709-28.567639-10.721179-2.082428 3.501754-4.29277 7.218402-7.693216 12.936637 5.864568 4.480035 12.511965 9.55768 21.451568 16.387225-4.50664 4.199649-6.874571 6.40692-9.468652 8.824993-7.597025-6.746658-13.491269-11.980869-21.524223-19.11536-3.211135 3.735068-6.271844 7.294127-8.371668 9.736758C743.781924 266.199805 765.621325 267.161712 756.030899 285.684578z" p-id="3454" fill="#13227a"></path><path d="M698.877201 162.595168c11.835559 1.732457 13.931291 7.283894 11.091616 16.847713-3.489474 11.754718-5.915733 23.824615-9.892301 40.265052 12.930497-10.657734 22.898523-18.260899 32.121582-26.679639 6.785543-6.194072 12.396331-7.417947 19.066241 1.998517-16.170285 12.580526-32.213679 25.482371-48.862871 37.548174-2.416026 1.750877-8.779967 0.816598-11.417027-1.27197-2.693342-2.133593-4.76042-7.531534-4.139274-10.963703C690.277336 201.369264 694.614108 182.563966 698.877201 162.595168z" p-id="3455" fill="#13227a"></path><path d="M908.593574 522.780531c-20.253276-6.834662-40.505529-13.670348-63.450101-21.412682-0.005117-0.069585-0.274246-4.081968-0.275269-4.097318 22.466688-9.41544 42.537815-17.827017 62.500473-26.193569 2.578732 10.56666 2.578732 10.56666-24.049742 28.167526 6.753821 3.125177 13.361309 5.164626 18.701944 8.977465 4.187369 2.990101 6.807033 8.17417 10.122545 12.384052C910.960481 521.331529 909.776516 522.05603 908.593574 522.780531z" p-id="3456" fill="#13227a"></path><path d="M309.8827 189.373045c7.395434 12.012591 16.136515 26.209942 25.556049 41.510416-3.613294 2.76088-6.897084 5.27105-11.512195 8.797363-9.857509-15.35471-19.075451-29.713742-27.556613-42.922578-8.218172-2.581802-16.272615 14.248516-22.586414-2.814092 14.476713-9.06547 28.631084-17.930371 42.990117-26.922163C330.398966 180.397626 310.35342 179.581028 309.8827 189.373045z" p-id="3457" fill="#13227a"></path><path d="M886.069581 421.35042c-1.431605-17.289782-1.431605-17.289782 8.318456-20.366863 3.458775 13.326517 7.30743 26.521027 10.080589 39.936571 0.732687 3.543709-1.853208 7.773034-2.914376 11.68718-2.64627-2.63399-5.581112-5.046946-7.834432-7.982812-1.399883-1.823532-1.76725-4.440126-3.228531-8.414647-13.630439 3.326768-26.960025 6.308683-40.127929 9.884115-9.637498 2.616594-14.012132-0.231267-12.890588-11.743462C853.248058 430.130388 869.305779 425.835571 886.069581 421.35042z" p-id="3458" fill="#13227a"></path><path d="M400.542512 875.326912c7.522324 1.6158 15.044648 3.230578 23.756053 5.101181-1.665942 1.995447-2.938935 4.563946-3.832282 4.438079-20.85498-2.947122-26.734898 12.035104-32.765241 26.960025-1.485841 3.677762-2.582825 7.77815-5.007037 10.746762-3.5345 4.329609-8.107655 7.810896-12.237719 11.653411 0.522909-5.832845-0.291642-12.224416 1.860371-17.376763 3.972475-9.511631 9.685593-18.296715 15.790638-29.420053-10.67513-1.626034-20.057825-3.055592-29.441543-4.484128 0.068562-1.331321 0.138146-2.662643 0.206708-3.992941 14.086833-1.072425 28.173666-2.145873 42.22059-3.241834C401.052119 875.686093 400.542512 875.326912 400.542512 875.326912z" p-id="3459" fill="#13227a"></path><path d="M125.453247 431.505711c21.231557 4.137227 41.488927 8.085142 62.467727 12.174274-0.809435 5.075599-1.403976 8.800433-2.273786 14.255679-21.508873-4.082992-42.184775-8.008394-64.084551-12.166087C123.006522 440.473967 124.106576 436.443164 125.453247 431.505711z" p-id="3460" fill="#13227a"></path><path d="M885.158838 374.926088c1.734504 5.031597 2.977821 8.637728 4.703115 13.641695-20.196994 6.977925-39.671535 13.707187-60.338227 20.846794-1.890047-4.490268-3.498684-8.312316-5.664-13.456477C844.413855 388.905474 864.000959 382.184399 885.158838 374.926088z" p-id="3461" fill="#13227a"></path><path d="M671.188582 148.316977c4.996804 2.249227 8.445346 3.801583 13.57211 6.110161-8.924253 19.828604-17.545608 38.983873-26.466792 58.804291-4.491291-2.173502-7.889691-3.817955-12.858866-6.222725C653.953036 187.595562 662.20907 168.781054 671.188582 148.316977z" p-id="3462" fill="#13227a"></path><path d="M364.743168 810.653961c2.545986 6.272867 4.371564 10.769274 6.321986 15.573697-4.54348 2.49789-8.328689 4.578272-12.002358 6.597255 4.937452-19.692504 8.314363-24.619724 27.440979-39.776935-3.773953-6.847965-7.587815-13.768585-11.401678-20.689205 1.375324-1.014096 2.750647-2.02717 4.124947-3.041266 6.89913 7.42818 13.798261 14.857383 21.976524 23.662933C387.4094 799.667745 376.47128 804.969495 364.743168 810.653961z" p-id="3463" fill="#13227a"></path><path d="M220.927715 677.216879c-0.926092-16.806781-1.667989-30.271444-2.410909-43.735084 1.74576-0.363274 3.490497-0.725524 5.236258-1.088798 12.015661 7.861038 10.649548 20.778232 8.182356 32.793894C230.990908 669.790746 224.699622 673.296593 220.927715 677.216879z" p-id="3464" fill="#13227a"></path><path d="M326.198294 871.640963c11.583826-9.417487 23.166629-18.834974 35.001165-28.456099-6.887874 11.390421-12.910031 23.078625-20.852934 33.271778-1.987261 2.551102-10.150174 0.289596-15.47546 0.240477C325.313134 875.011734 325.756225 873.326349 326.198294 871.640963z" p-id="3465" fill="#13227a"></path><path d="M780.208555 753.905492c3.845585 11.292184 7.074116 20.774139 10.490935 30.80561-10.818393 5.200442-18.012236-1.500167-19.449981-8.822946C770.105453 770.06145 776.282129 762.797 780.208555 753.905492z" p-id="3466" fill="#13227a"></path><path d="M798.665929 282.08254c6.40078-5.000897 9.853415-7.698333 15.516392-12.122085 2.942005 6.741541 5.820566 12.413727 7.625678 18.409279 0.292666 0.973164-5.154393 5.348821-6.28003 4.790096C810.17403 290.50435 805.397237 286.684348 798.665929 282.08254z" p-id="3467" fill="#13227a"></path><path d="M364.817869 186.986695c-0.60989-9.369392-1.020236-15.680121-1.709945-26.287713 7.030114 7.561209 11.487635 12.354376 17.336854 18.645662C375.266849 181.877327 371.279025 183.826725 364.817869 186.986695z" p-id="3468" fill="#13227a"></path><path d="M151.028739 391.190517c10.836813 0 17.46272 0 25.462928 0-1.487887 5.317099-2.615571 9.345856-4.414543 15.773242C165.181063 401.797086 159.663396 397.661905 151.028739 391.190517z" p-id="3469" fill="#13227a"></path><path d="M503.507582 312.689628c0.195451 16.284895 5.666046 30.898731-10.885931 40.404222-2.593058 1.488911-3.028986 8.020674-3.189645 12.268418-3.066849 80.959893-6.101975 161.921833-8.552793 242.902192-0.191358 6.337335 4.814656 12.668531 5.89015 19.250436 1.321088 8.083096 1.047866 16.426111 1.514493 25.657356-33.261545 0-64.812121 0-100.827383 0 3.517103-11.17348 6.545066-20.488637 9.336646-29.874401 0.680499-2.288113 0.901533-4.819772 0.799202-7.217379-3.573385-83.926458-7.161097-167.853939-10.986215-251.769141-0.190335-4.183276-1.27504-10.472516-4.053316-12.037151-16.493649-9.289574-9.782807-23.716144-10.348696-39.717583 14.775518 9.521864 27.980261 17.195637 40.057321 26.356274 3.349281 2.540869 4.427846 9.43079 4.728698 14.434757 5.217838 86.817298 10.144034 173.650969 15.176654 260.479523 0.197498 3.400446 0.830925 6.77531 1.24741 10.044774 12.282744 4.604878 12.579503-3.142573 12.95301-11.158131 2.449795-52.623521 4.934382-105.246019 7.482415-157.864424 1.683339-34.748409 3.367701-69.498864 5.41329-104.226806 0.23843-4.040013 1.619894-9.550517 4.474918-11.631922C476.014414 330.035692 489.039056 322.108139 503.507582 312.689628z" p-id="3470" fill="#13227a"></path><path d="M638.328173 312.204581c-1.488911 16.868179 5.021364 31.81459-11.740392 40.553625-2.340301 1.220804-3.124154 6.956436-3.260254 10.651594-3.028986 82.435501-5.961782 164.876118-8.511861 247.326968-0.159636 5.161556 3.581572 10.328229 4.411473 15.662725 1.333368 8.567119 1.750877 17.277502 2.62478 26.671453-33.227776 0-64.264653 0-99.797937 0 3.910053-11.617595 7.28901-20.932752 10.103102-30.416753 0.953721-3.214205 0.728594-6.859221 0.62217-10.293437-2.582825-82.959434-5.188162-165.918867-7.961322-248.872161-0.124843-3.722788-0.724501-9.523911-3.021823-10.743692-16.526395-8.771781-10.641361-23.627117-11.761881-40.71633 15.906272 10.437723 29.859052 19.113313 43.113937 28.751834 2.27174 1.651616 1.991354 7.385201 2.167363 11.265578 3.914146 86.382393 7.633864 172.775019 11.806907 259.145132 0.231267 4.780887 4.063549 9.387811 6.219655 14.074553 2.39249-4.608971 6.64842-9.118682 6.901177-13.842263 4.583388-85.842087 8.888438-171.70157 12.608156-257.58459 0.418532-9.66308 3.223415-15.527648 11.523451-20.166295C615.066377 327.699484 625.14185 320.622298 638.328173 312.204581z" p-id="3471" fill="#13227a"></path><path d="M647.031393 311.586504c15.682167 10.108219 28.091802 17.327644 39.47813 25.90602 3.543709 2.669806 5.906523 8.944719 6.120394 13.690814 3.107781 68.979024 5.715165 137.981584 8.544607 206.972888 0.892323 21.760606 2.087545 43.508933 3.178389 65.959248 4.857635 0.970094 8.983605 1.794879 13.196557 2.636037 0 9.18929 0 17.407462 0 26.497491-18.46863 0-36.137035 0-58.283428 0 3.270487-11.000542 6.163373-20.323884 8.762571-29.728068 0.765433-2.769067 1.035586-5.77554 0.962931-8.659217-2.12336-83.437317-4.27742-166.873612-6.628978-250.303766-0.11768-4.187369-0.75827-10.722202-3.328815-12.095479C642.240273 343.491145 649.365554 328.550875 647.031393 311.586504z" p-id="3472" fill="#13227a"></path><path d="M348.752985 653.312446c-20.255323 0-37.941124 0-56.497759 0 0-9.036817 0-17.291828 0-26.78504 12.3247 0.902556 14.34266-6.218632 14.800078-17.214057 3.555989-85.429695 7.579629-170.841993 12.272511-256.215406 0.357134-6.489808 5.671163-14.18814 10.955516-18.599613 9.379625-7.831362 20.503986-13.573133 32.715099-21.346167 0.213871 15.491833 6.611581 29.854958-10.177803 39.457664-2.629897 1.50426-3.295046 7.878434-3.454682 12.05557-3.14462 82.474386-6.192026 164.952866-8.771781 247.446695-0.149403 4.774747 4.762467 9.510608 5.687536 14.562671C347.767542 634.791627 347.892385 643.160225 348.752985 653.312446z" p-id="3473" fill="#13227a"></path></svg>
