<svg t="1652529299545" class="icon" viewBox="0 0 1024 1024" version="1.1" xmlns="http://www.w3.org/2000/svg" p-id="2812" width="200" height="200"><path d="M224 284h96c17.672 0 32 14.328 32 32v484c0 17.672-14.328 32-32 32h-96c-17.672 0-32-14.328-32-32V316c0-17.672 14.328-32 32-32zM434 192h96c17.672 0 32 14.328 32 32v576c0 17.672-14.328 32-32 32h-96c-17.672 0-32-14.328-32-32V224c0-17.672 14.328-32 32-32z" fill="#cdcdcd" p-id="2813"></path><path d="M272 722c-11.046 0-20-8.956-20-20v-144c0-11.044 8.954-20 20-20s20 8.956 20 20v144c0 11.044-8.954 20-20 20zM482 722c-11.046 0-20-8.956-20-20v-144c0-11.044 8.954-20 20-20s20 8.956 20 20v144c0 11.044-8.954 20-20 20z" fill="#cdcdcd" p-id="2814"></path><path d="M272 408m-50 0a50 50 0 1 0 100 0 50 50 0 1 0-100 0Z" fill="#cdcdcd" p-id="2815"></path><path d="M272 408m-30 0a30 30 0 1 0 60 0 30 30 0 1 0-60 0Z" fill="#cdcdcd" p-id="2816"></path><path d="M482 316m-50 0a50 50 0 1 0 100 0 50 50 0 1 0-100 0Z" fill="#cdcdcd" p-id="2817"></path><path d="M482 316m-30 0a30 30 0 1 0 60 0 30 30 0 1 0-60 0Z" fill="#cdcdcd" p-id="2818"></path><path d="M806.832 808.454l-93.504 21.598c-17.212 3.976-34.392-6.754-38.368-23.966l-108.902-471.416c-3.974-17.214 6.756-34.392 23.968-38.368l93.504-21.6c17.214-3.976 34.392 6.754 38.37 23.968l108.9 471.416c3.978 17.21-6.756 34.39-23.968 38.368z" fill="#cdcdcd" p-id="2819"></path><path d="M730.79 712.584c-9.104 0-17.332-6.254-19.468-15.502l-32.4-140.256c-2.486-10.762 4.222-21.502 14.984-23.988 10.76-2.484 21.5 4.222 23.988 14.984l32.4 140.256c2.486 10.762-4.222 21.502-14.984 23.988-1.516 0.35-3.03 0.518-4.52 0.518z" fill="#cdcdcd" p-id="2820"></path><path d="M629.33466668 442.09600001a49.98 49.98 0 1 0 99.96 0 49.98 49.98 0 1 0-99.96 0Z" fill="#cdcdcd" p-id="2821"></path><path d="M649.32666668 442.09600001a29.988 29.988 0 1 0 59.976 0 29.988 29.988 0 1 0-59.976 0Z" fill="#cdcdcd" p-id="2822"></path></svg>
